{
    "asset" : {
        "generator" : "Khronos glTF Blender I/O v1.7.33",
        "version" : "2.0"
    },
    "scene" : 0,
    "scenes" : [
        {
            "name" : "Scene",
            "nodes" : [
                0,
                1,
                2,
                3,
                4,
                5,
                6,
                7,
                8,
                9
            ]
        }
    ],
    "nodes" : [
        {
            "mesh" : 0,
            "name" : "barrel_piece.002",
            "translation" : [
                -0.48897576332092285,
                0.6036990284919739,
                -0.581811785697937
            ]
        },
        {
            "mesh" : 1,
            "name" : "barrel_piece.003",
            "translation" : [
                -0.1734301894903183,
                1.385413646697998,
                -0.6461691856384277
            ]
        },
        {
            "mesh" : 2,
            "name" : "barrel_piece.004",
            "translation" : [
                0.26623833179473877,
                0.17518657445907593,
                -0.5854181051254272
            ]
        },
        {
            "mesh" : 3,
            "name" : "barrel_piece.005",
            "translation" : [
                -0.5214775800704956,
                1.264753818511963,
                0.3714545965194702
            ]
        },
        {
            "mesh" : 4,
            "name" : "barrel_piece.006",
            "translation" : [
                0.6563460826873779,
                0.517546534538269,
                0.3345225155353546
            ]
        },
        {
            "mesh" : 5,
            "name" : "barrel_piece.007",
            "translation" : [
                -0.40199539065361023,
                1.7078174352645874,
                0.3020012080669403
            ]
        },
        {
            "mesh" : 6,
            "name" : "barrel_piece.008",
            "translation" : [
                -0.6647404432296753,
                0.6280831098556519,
                0.3109673857688904
            ]
        },
        {
            "mesh" : 7,
            "name" : "barrel_piece.009",
            "translation" : [
                0.5237836837768555,
                1.4383339881896973,
                0.20082232356071472
            ]
        },
        {
            "mesh" : 8,
            "name" : "barrel_piece.010",
            "translation" : [
                0.5036377906799316,
                0.8258771896362305,
                -0.6312540769577026
            ]
        },
        {
            "mesh" : 9,
            "name" : "barrel_piece.001",
            "translation" : [
                -0.04315255209803581,
                0.48817750811576843,
                0.7206289768218994
            ]
        }
    ],
    "materials" : [
        {
            "doubleSided" : true,
            "name" : "BrownDark.002",
            "pbrMetallicRoughness" : {
                "baseColorFactor" : [
                    0.15896089375019073,
                    0.07618540525436401,
                    0.038204386830329895,
                    1
                ],
                "metallicFactor" : 0,
                "roughnessFactor" : 0.5
            }
        }
    ],
    "meshes" : [
        {
            "name" : "Barrel_cell.010",
            "primitives" : [
                {
                    "attributes" : {
                        "POSITION" : 0,
                        "NORMAL" : 1,
                        "TEXCOORD_0" : 2
                    },
                    "indices" : 3,
                    "material" : 0
                }
            ]
        },
        {
            "name" : "Barrel_cell.011",
            "primitives" : [
                {
                    "attributes" : {
                        "POSITION" : 4,
                        "NORMAL" : 5,
                        "TEXCOORD_0" : 6
                    },
                    "indices" : 7,
                    "material" : 0
                }
            ]
        },
        {
            "name" : "Barrel_cell.001",
            "primitives" : [
                {
                    "attributes" : {
                        "POSITION" : 8,
                        "NORMAL" : 9,
                        "TEXCOORD_0" : 10
                    },
                    "indices" : 11,
                    "material" : 0
                }
            ]
        },
        {
            "name" : "Barrel_cell.002",
            "primitives" : [
                {
                    "attributes" : {
                        "POSITION" : 12,
                        "NORMAL" : 13,
                        "TEXCOORD_0" : 14
                    },
                    "indices" : 15,
                    "material" : 0
                }
            ]
        },
        {
            "name" : "Barrel_cell.003",
            "primitives" : [
                {
                    "attributes" : {
                        "POSITION" : 16,
                        "NORMAL" : 17,
                        "TEXCOORD_0" : 18
                    },
                    "indices" : 19,
                    "material" : 0
                }
            ]
        },
        {
            "name" : "Barrel_cell.004",
            "primitives" : [
                {
                    "attributes" : {
                        "POSITION" : 20,
                        "NORMAL" : 21,
                        "TEXCOORD_0" : 22
                    },
                    "indices" : 23,
                    "material" : 0
                }
            ]
        },
        {
            "name" : "Barrel_cell.005",
            "primitives" : [
                {
                    "attributes" : {
                        "POSITION" : 24,
                        "NORMAL" : 25,
                        "TEXCOORD_0" : 26
                    },
                    "indices" : 27,
                    "material" : 0
                }
            ]
        },
        {
            "name" : "Barrel_cell.006",
            "primitives" : [
                {
                    "attributes" : {
                        "POSITION" : 28,
                        "NORMAL" : 29,
                        "TEXCOORD_0" : 30
                    },
                    "indices" : 31,
                    "material" : 0
                }
            ]
        },
        {
            "name" : "Barrel_cell.007",
            "primitives" : [
                {
                    "attributes" : {
                        "POSITION" : 32,
                        "NORMAL" : 33,
                        "TEXCOORD_0" : 34
                    },
                    "indices" : 35,
                    "material" : 0
                }
            ]
        },
        {
            "name" : "Barrel_cell.008",
            "primitives" : [
                {
                    "attributes" : {
                        "POSITION" : 36,
                        "NORMAL" : 37,
                        "TEXCOORD_0" : 38
                    },
                    "indices" : 39,
                    "material" : 0
                }
            ]
        }
    ],
    "accessors" : [
        {
            "bufferView" : 0,
            "componentType" : 5126,
            "count" : 160,
            "max" : [
                0.5977070331573486,
                0.6211978197097778,
                0.360348641872406
            ],
            "min" : [
                -0.3947419822216034,
                -0.6036996245384216,
                -0.3605709671974182
            ],
            "type" : "VEC3"
        },
        {
            "bufferView" : 1,
            "componentType" : 5126,
            "count" : 160,
            "type" : "VEC3"
        },
        {
            "bufferView" : 2,
            "componentType" : 5126,
            "count" : 160,
            "type" : "VEC2"
        },
        {
            "bufferView" : 3,
            "componentType" : 5123,
            "count" : 270,
            "type" : "SCALAR"
        },
        {
            "bufferView" : 4,
            "componentType" : 5126,
            "count" : 239,
            "max" : [
                0.7619413733482361,
                0.5241791009902954,
                0.2522898316383362
            ],
            "min" : [
                -0.6551716327667236,
                -0.7265570163726807,
                -0.2971065640449524
            ],
            "type" : "VEC3"
        },
        {
            "bufferView" : 5,
            "componentType" : 5126,
            "count" : 239,
            "type" : "VEC3"
        },
        {
            "bufferView" : 6,
            "componentType" : 5126,
            "count" : 239,
            "type" : "VEC2"
        },
        {
            "bufferView" : 7,
            "componentType" : 5123,
            "count" : 417,
            "type" : "SCALAR"
        },
        {
            "bufferView" : 8,
            "componentType" : 5126,
            "count" : 110,
            "max" : [
                0.5137099027633667,
                0.4109921455383301,
                0.5534332990646362
            ],
            "min" : [
                -0.5970543622970581,
                -0.17518776655197144,
                -0.34779080748558044
            ],
            "type" : "VEC3"
        },
        {
            "bufferView" : 9,
            "componentType" : 5126,
            "count" : 110,
            "type" : "VEC3"
        },
        {
            "bufferView" : 10,
            "componentType" : 5126,
            "count" : 110,
            "type" : "VEC2"
        },
        {
            "bufferView" : 11,
            "componentType" : 5123,
            "count" : 174,
            "type" : "SCALAR"
        },
        {
            "bufferView" : 12,
            "componentType" : 5126,
            "count" : 192,
            "max" : [
                0.5837146043777466,
                0.33505046367645264,
                0.5718212127685547
            ],
            "min" : [
                -0.42179813981056213,
                -0.3093660771846771,
                -0.8322235345840454
            ],
            "type" : "VEC3"
        },
        {
            "bufferView" : 13,
            "componentType" : 5126,
            "count" : 192,
            "type" : "VEC3"
        },
        {
            "bufferView" : 14,
            "componentType" : 5126,
            "count" : 192,
            "type" : "VEC2"
        },
        {
            "bufferView" : 15,
            "componentType" : 5123,
            "count" : 336,
            "type" : "SCALAR"
        },
        {
            "bufferView" : 16,
            "componentType" : 5126,
            "count" : 120,
            "max" : [
                0.286929726600647,
                0.4977322816848755,
                0.5812993049621582
            ],
            "min" : [
                -0.4408304691314697,
                -0.5175471305847168,
                -0.5819451808929443
            ],
            "type" : "VEC3"
        },
        {
            "bufferView" : 17,
            "componentType" : 5126,
            "count" : 120,
            "type" : "VEC3"
        },
        {
            "bufferView" : 18,
            "componentType" : 5126,
            "count" : 120,
            "type" : "VEC2"
        },
        {
            "bufferView" : 19,
            "componentType" : 5123,
            "count" : 216,
            "type" : "SCALAR"
        },
        {
            "bufferView" : 20,
            "componentType" : 5126,
            "count" : 144,
            "max" : [
                0.6406348943710327,
                0.20177534222602844,
                0.5974218249320984
            ],
            "min" : [
                -0.45629116892814636,
                -0.31071892380714417,
                -0.8378607630729675
            ],
            "type" : "VEC3"
        },
        {
            "bufferView" : 21,
            "componentType" : 5126,
            "count" : 144,
            "type" : "VEC3"
        },
        {
            "bufferView" : 22,
            "componentType" : 5126,
            "count" : 144,
            "type" : "VEC2"
        },
        {
            "bufferView" : 23,
            "componentType" : 5123,
            "count" : 246,
            "type" : "SCALAR"
        },
        {
            "bufferView" : 24,
            "componentType" : 5126,
            "count" : 158,
            "max" : [
                0.44001325964927673,
                0.3256334960460663,
                0.5875678062438965
            ],
            "min" : [
                -0.27853527665138245,
                -0.6280837059020996,
                -0.608067512512207
            ],
            "type" : "VEC3"
        },
        {
            "bufferView" : 25,
            "componentType" : 5126,
            "count" : 158,
            "type" : "VEC3"
        },
        {
            "bufferView" : 26,
            "componentType" : 5126,
            "count" : 158,
            "type" : "VEC2"
        },
        {
            "bufferView" : 27,
            "componentType" : 5123,
            "count" : 270,
            "type" : "SCALAR"
        },
        {
            "bufferView" : 28,
            "componentType" : 5126,
            "count" : 184,
            "max" : [
                0.41949212551116943,
                0.4712587594985962,
                0.7298176288604736
            ],
            "min" : [
                -0.4663790464401245,
                -0.4805756211280823,
                -0.8502867221832275
            ],
            "type" : "VEC3"
        },
        {
            "bufferView" : 29,
            "componentType" : 5126,
            "count" : 184,
            "type" : "VEC3"
        },
        {
            "bufferView" : 30,
            "componentType" : 5126,
            "count" : 184,
            "type" : "VEC2"
        },
        {
            "bufferView" : 31,
            "componentType" : 5123,
            "count" : 330,
            "type" : "SCALAR"
        },
        {
            "bufferView" : 32,
            "componentType" : 5126,
            "count" : 174,
            "max" : [
                0.41422486305236816,
                0.6566431522369385,
                0.43423551321029663
            ],
            "min" : [
                -0.40545952320098877,
                -0.6933824419975281,
                -0.3120216727256775
            ],
            "type" : "VEC3"
        },
        {
            "bufferView" : 33,
            "componentType" : 5126,
            "count" : 174,
            "type" : "VEC3"
        },
        {
            "bufferView" : 34,
            "componentType" : 5126,
            "count" : 174,
            "type" : "VEC2"
        },
        {
            "bufferView" : 35,
            "componentType" : 5123,
            "count" : 300,
            "type" : "SCALAR"
        },
        {
            "bufferView" : 36,
            "componentType" : 5126,
            "count" : 132,
            "max" : [
                0.6606326699256897,
                0.6795103549957275,
                0.22264684736728668
            ],
            "min" : [
                -0.6249463558197021,
                -0.48817870020866394,
                -0.43832117319107056
            ],
            "type" : "VEC3"
        },
        {
            "bufferView" : 37,
            "componentType" : 5126,
            "count" : 132,
            "type" : "VEC3"
        },
        {
            "bufferView" : 38,
            "componentType" : 5126,
            "count" : 132,
            "type" : "VEC2"
        },
        {
            "bufferView" : 39,
            "componentType" : 5123,
            "count" : 246,
            "type" : "SCALAR"
        }
    ],
    "bufferViews" : [
        {
            "buffer" : 0,
            "byteLength" : 1920,
            "byteOffset" : 0
        },
        {
            "buffer" : 0,
            "byteLength" : 1920,
            "byteOffset" : 1920
        },
        {
            "buffer" : 0,
            "byteLength" : 1280,
            "byteOffset" : 3840
        },
        {
            "buffer" : 0,
            "byteLength" : 540,
            "byteOffset" : 5120
        },
        {
            "buffer" : 0,
            "byteLength" : 2868,
            "byteOffset" : 5660
        },
        {
            "buffer" : 0,
            "byteLength" : 2868,
            "byteOffset" : 8528
        },
        {
            "buffer" : 0,
            "byteLength" : 1912,
            "byteOffset" : 11396
        },
        {
            "buffer" : 0,
            "byteLength" : 834,
            "byteOffset" : 13308
        },
        {
            "buffer" : 0,
            "byteLength" : 1320,
            "byteOffset" : 14144
        },
        {
            "buffer" : 0,
            "byteLength" : 1320,
            "byteOffset" : 15464
        },
        {
            "buffer" : 0,
            "byteLength" : 880,
            "byteOffset" : 16784
        },
        {
            "buffer" : 0,
            "byteLength" : 348,
            "byteOffset" : 17664
        },
        {
            "buffer" : 0,
            "byteLength" : 2304,
            "byteOffset" : 18012
        },
        {
            "buffer" : 0,
            "byteLength" : 2304,
            "byteOffset" : 20316
        },
        {
            "buffer" : 0,
            "byteLength" : 1536,
            "byteOffset" : 22620
        },
        {
            "buffer" : 0,
            "byteLength" : 672,
            "byteOffset" : 24156
        },
        {
            "buffer" : 0,
            "byteLength" : 1440,
            "byteOffset" : 24828
        },
        {
            "buffer" : 0,
            "byteLength" : 1440,
            "byteOffset" : 26268
        },
        {
            "buffer" : 0,
            "byteLength" : 960,
            "byteOffset" : 27708
        },
        {
            "buffer" : 0,
            "byteLength" : 432,
            "byteOffset" : 28668
        },
        {
            "buffer" : 0,
            "byteLength" : 1728,
            "byteOffset" : 29100
        },
        {
            "buffer" : 0,
            "byteLength" : 1728,
            "byteOffset" : 30828
        },
        {
            "buffer" : 0,
            "byteLength" : 1152,
            "byteOffset" : 32556
        },
        {
            "buffer" : 0,
            "byteLength" : 492,
            "byteOffset" : 33708
        },
        {
            "buffer" : 0,
            "byteLength" : 1896,
            "byteOffset" : 34200
        },
        {
            "buffer" : 0,
            "byteLength" : 1896,
            "byteOffset" : 36096
        },
        {
            "buffer" : 0,
            "byteLength" : 1264,
            "byteOffset" : 37992
        },
        {
            "buffer" : 0,
            "byteLength" : 540,
            "byteOffset" : 39256
        },
        {
            "buffer" : 0,
            "byteLength" : 2208,
            "byteOffset" : 39796
        },
        {
            "buffer" : 0,
            "byteLength" : 2208,
            "byteOffset" : 42004
        },
        {
            "buffer" : 0,
            "byteLength" : 1472,
            "byteOffset" : 44212
        },
        {
            "buffer" : 0,
            "byteLength" : 660,
            "byteOffset" : 45684
        },
        {
            "buffer" : 0,
            "byteLength" : 2088,
            "byteOffset" : 46344
        },
        {
            "buffer" : 0,
            "byteLength" : 2088,
            "byteOffset" : 48432
        },
        {
            "buffer" : 0,
            "byteLength" : 1392,
            "byteOffset" : 50520
        },
        {
            "buffer" : 0,
            "byteLength" : 600,
            "byteOffset" : 51912
        },
        {
            "buffer" : 0,
            "byteLength" : 1584,
            "byteOffset" : 52512
        },
        {
            "buffer" : 0,
            "byteLength" : 1584,
            "byteOffset" : 54096
        },
        {
            "buffer" : 0,
            "byteLength" : 1056,
            "byteOffset" : 55680
        },
        {
            "buffer" : 0,
            "byteLength" : 492,
            "byteOffset" : 56736
        }
    ],
    "buffers" : [
        {
            "byteLength" : 57228,
            "uri" : "barrel_pieces.bin"
        }
    ]
}
