{
    "asset" : {
        "generator" : "Khronos glTF Blender I/O v1.7.33",
        "version" : "2.0"
    },
    "scene" : 0,
    "scenes" : [
        {
            "name" : "Scene",
            "nodes" : [
                0
            ]
        }
    ],
    "nodes" : [
        {
            "mesh" : 0,
            "name" : "Barrel",
            "rotation" : [
                0,
                -0.5270430445671082,
                0,
                0.8498386144638062
            ]
        }
    ],
    "materials" : [
        {
            "doubleSided" : true,
            "name" : "BrownDark.002",
            "pbrMetallicRoughness" : {
                "baseColorFactor" : [
                    0.15896089375019073,
                    0.07618540525436401,
                    0.038204386830329895,
                    1
                ],
                "metallicFactor" : 0,
                "roughnessFactor" : 0.5
            }
        }
    ],
    "meshes" : [
        {
            "name" : "Cube.055",
            "primitives" : [
                {
                    "attributes" : {
                        "POSITION" : 0,
                        "NORMAL" : 1,
                        "TEXCOORD_0" : 2
                    },
                    "indices" : 3,
                    "material" : 0
                }
            ]
        }
    ],
    "accessors" : [
        {
            "bufferView" : 0,
            "componentType" : 5126,
            "count" : 580,
            "max" : [
                0.9328405261039734,
                1.9095927476882935,
                0.9328404068946838
            ],
            "min" : [
                -0.9328404068946838,
                -5.960464477539062e-07,
                -0.9328405261039734
            ],
            "type" : "VEC3"
        },
        {
            "bufferView" : 1,
            "componentType" : 5126,
            "count" : 580,
            "type" : "VEC3"
        },
        {
            "bufferView" : 2,
            "componentType" : 5126,
            "count" : 580,
            "type" : "VEC2"
        },
        {
            "bufferView" : 3,
            "componentType" : 5123,
            "count" : 894,
            "type" : "SCALAR"
        }
    ],
    "bufferViews" : [
        {
            "buffer" : 0,
            "byteLength" : 6960,
            "byteOffset" : 0
        },
        {
            "buffer" : 0,
            "byteLength" : 6960,
            "byteOffset" : 6960
        },
        {
            "buffer" : 0,
            "byteLength" : 4640,
            "byteOffset" : 13920
        },
        {
            "buffer" : 0,
            "byteLength" : 1788,
            "byteOffset" : 18560
        }
    ],
    "buffers" : [
        {
            "byteLength" : 20348,
            "uri" : "barrel.bin"
        }
    ]
}
